<?xml version="1.0" encoding="UTF-8"?>
<svg id="Layer_1" xmlns="http://www.w3.org/2000/svg" version="1.1" viewBox="0 0 100 91.94">
  <!-- Generator: Adobe Illustrator 30.4.0, SVG Export Plug-In . SVG Version: 2.1.4 Build 226)  -->
  <defs>
    <style>
      .st0 {
        fill: #e1f5ee;
        stroke: #0f6e56;
      }

      .st0, .st1, .st2 {
        stroke-miterlimit: 10;
        stroke-width: .07px;
      }

      .st3 {
        fill: #712b13;
      }

      .st3, .st4, .st5, .st6, .st7, .st8, .st9, .st10 {
        font-family: SegoeUI, 'Segoe UI';
        isolation: isolate;
      }

      .st3, .st5, .st8, .st10 {
        font-size: 2.06px;
      }

      .st4 {
        fill: #534ab7;
      }

      .st4, .st6, .st7, .st9 {
        font-size: 1.76px;
      }

      .st11 {
        fill: none;
      }

      .st5 {
        fill: #3c3489;
      }

      .st1 {
        fill: #faece7;
        stroke: #993c1d;
      }

      .st2 {
        fill: #eeedfe;
        stroke: #534ab7;
      }

      .st6 {
        fill: #0f6e56;
      }

      .st7 {
        fill: #3d3d3a;
      }

      .st8 {
        fill: #085041;
      }

      .st9 {
        fill: #993c1d;
      }

      .st10 {
        fill: #141413;
      }
    </style>
  </defs>
  <text class="st10" transform="translate(38.1 4.82)"><tspan x="0" y="0">ABM system — full design</tspan></text>
  <text class="st7" transform="translate(38.91 7.47)"><tspan x="0" y="0">11 elements across 3 groups</tspan></text>
  <rect class="st11" x="5.88" y="9.82" width="88.24" height="2.65" rx=".59" ry=".59"/>
  <text class="st7" transform="translate(32.09 11.74)"><tspan x="0" y="0">Group 1 — Structure: what exists in the model</tspan></text>
  <g>
    <rect class="st0" x="6.47" y="13.65" width="27.65" height="10" rx="1.18" ry="1.18"/>
    <text class="st8" transform="translate(17.55 17.18)"><tspan x="0" y="0">Agent</tspan></text>
    <text class="st6" transform="translate(9.96 20.12)"><tspan x="0" y="0">Type, count, heterogeneity</tspan></text>
  </g>
  <g>
    <rect class="st0" x="36.18" y="13.65" width="27.65" height="10" rx="1.18" ry="1.18"/>
    <text class="st8" transform="translate(47.73 17.18)"><tspan x="0" y="0">State</tspan></text>
    <text class="st6" transform="translate(38.36 20.12)"><tspan x="0" y="0">Attributes, types, distributions</tspan></text>
  </g>
  <g>
    <rect class="st0" x="65.88" y="13.65" width="27.65" height="10" rx="1.18" ry="1.18"/>
    <text class="st8" transform="translate(70.42 16.59)"><tspan x="0" y="0">Interaction topology</tspan></text>
    <text class="st6" transform="translate(69.42 19.53)"><tspan x="0" y="0">All-pairs, random, network</tspan></text>
    <text class="st6" transform="translate(72.42 21.88)"><tspan x="0" y="0">replaces &quot;network&quot;</tspan></text>
  </g>
  <g>
    <rect class="st0" x="6.47" y="25.71" width="27.65" height="10" rx="1.18" ry="1.18"/>
    <text class="st8" transform="translate(14.55 29.24)"><tspan x="0" y="0">Environment</tspan></text>
    <text class="st6" transform="translate(12.44 32.18)"><tspan x="0" y="0">Spatial grid, patches</tspan></text>
  </g>
  <rect class="st11" x="5.88" y="37.76" width="88.24" height="2.65" rx=".59" ry=".59"/>
  <text class="st7" transform="translate(31.76 39.68)"><tspan x="0" y="0">Group 2 — Behaviour: what happens each step</tspan></text>
  <g>
    <rect class="st2" x="6.47" y="41.59" width="27.65" height="12.94" rx="1.18" ry="1.18"/>
    <text class="st5" transform="translate(12.64 45.12)"><tspan x="0" y="0">Behaviour / rules</tspan></text>
    <text class="st4" transform="translate(11.13 48.06)"><tspan x="0" y="0">Two layers: modules for</tspan></text>
    <text class="st4" transform="translate(7.95 50.41)"><tspan x="0" y="0">complex, expressions for simple</tspan></text>
  </g>
  <g>
    <rect class="st2" x="36.18" y="41.59" width="27.65" height="12.94" rx="1.18" ry="1.18"/>
    <text class="st5" transform="translate(44.98 44.53)"><tspan x="0" y="0">Scheduling</tspan></text>
    <text class="st4" transform="translate(39.2 47.47)"><tspan x="0" y="0">All at once / random turns /</tspan></text>
    <text class="st4" transform="translate(38.28 49.82)"><tspan x="0" y="0">priority · live vs snapshot state</tspan></text>
  </g>
  <g>
    <rect class="st2" x="65.88" y="41.59" width="27.65" height="12.94" rx="1.18" ry="1.18"/>
    <text class="st5" transform="translate(73.09 44.53)"><tspan x="0" y="0">Agent lifecycle</tspan></text>
    <text class="st4" transform="translate(68.68 47.47)"><tspan x="0" y="0">Reproduction, external entry</tspan></text>
    <text class="st4" transform="translate(66.66 49.82)"><tspan x="0" y="0">Condition + probabilistic removal</tspan></text>
  </g>
  <rect class="st11" x="5.88" y="56.88" width="88.24" height="2.65" rx=".59" ry=".59"/>
  <text class="st7" transform="translate(23.31 58.79)"><tspan x="0" y="0">Group 3 — Operation: how the simulation runs and what it produces</tspan></text>
  <g>
    <rect class="st1" x="6.47" y="60.71" width="27.65" height="12.94" rx="1.18" ry="1.18"/>
    <text class="st3" transform="translate(14.82 63.65)"><tspan x="0" y="0">Initialisation</tspan></text>
    <text class="st9" transform="translate(10.4 66.59)"><tspan x="0" y="0">Population size · attribute</tspan></text>
    <text class="st9" transform="translate(10.35 68.94)"><tspan x="0" y="0">distributions · CSV import</tspan></text>
  </g>
  <g>
    <rect class="st1" x="36.18" y="60.71" width="27.65" height="12.94" rx="1.18" ry="1.18"/>
    <text class="st3" transform="translate(40.87 63.65)"><tspan x="0" y="0">Stopping conditions</tspan></text>
    <text class="st9" transform="translate(40.6 66.59)"><tspan x="0" y="0">Fixed limit (always on) +</tspan></text>
    <text class="st9" transform="translate(37.75 68.94)"><tspan x="0" y="0">condition expressions, AND/OR</tspan></text>
  </g>
  <g>
    <rect class="st1" x="65.88" y="60.71" width="27.65" height="12.94" rx="1.18" ry="1.18"/>
    <text class="st3" transform="translate(72.93 63.65)"><tspan x="0" y="0">Data collection</tspan></text>
    <text class="st9" transform="translate(68.78 66.59)"><tspan x="0" y="0">Aggregate (on) · agent-level</tspan></text>
    <text class="st9" transform="translate(70.4 68.94)"><tspan x="0" y="0">(opt-in) · events · export</tspan></text>
  </g>
  <g>
    <rect class="st1" x="6.47" y="75.71" width="27.65" height="12.94" rx="1.18" ry="1.18"/>
    <text class="st3" transform="translate(11.96 78.65)"><tspan x="0" y="0">Global parameters</tspan></text>
    <text class="st9" transform="translate(9.13 81.59)"><tspan x="0" y="0">Flat, time-varying, computed</tspan></text>
    <text class="st9" transform="translate(11.54 83.94)"><tspan x="0" y="0">Sweep support built in</tspan></text>
  </g>
  <g>
    <rect class="st1" x="36.18" y="75.71" width="27.65" height="12.94" rx="1.18" ry="1.18"/>
    <text class="st3" transform="translate(44.19 78.65)"><tspan x="0" y="0">Randomness</tspan></text>
    <text class="st9" transform="translate(38.35 81.59)"><tspan x="0" y="0">Fixed seed / new seed per run</tspan></text>
    <text class="st9" transform="translate(41.17 83.94)"><tspan x="0" y="0">Multiple runs · streams</tspan></text>
  </g>
</svg>